<svg viewBox="0 0 32 32" xmlns="http://www.w3.org/2000/svg" xmlns:xlink="http://www.w3.org/1999/xlink" width="32.000000" height="32.000000" fill="none" customFrame="url(#clipPath_0)">
	<defs>
		<clipPath id="clipPath_0">
			<rect width="32.000000" height="32.000000" x="0.000000" y="0.000000" rx="16.000000" fill="rgb(255,255,255)" />
		</clipPath>
		<linearGradient id="paint_linear_0" x1="32" x2="1.90734863e-06" y1="32" y2="0" gradientUnits="userSpaceOnUse">
			<stop stop-color="rgb(255,77,103)" offset="0" stop-opacity="1" />
			<stop stop-color="rgb(255,130.688,148.846)" offset="1" stop-opacity="1" />
		</linearGradient>
	</defs>
	<rect id="Type=Logo Circle, Component=Logo" width="32.000000" height="32.000000" x="0.000000" y="0.000000" rx="16.000000" />
	<rect id="Rectangle" width="32.000000" height="32.000000" x="0.000000" y="0.000000" rx="12.000000" fill="url(#paint_linear_0)" />
	<path id="Vector" d="M15.9194 9.59961L10.9767 9.59961C8.90984 9.59961 7.4668 11.0239 7.4668 13.065L7.4668 18.9346C7.4668 20.9757 8.90984 22.4 10.9767 22.4L15.9194 22.4C17.9862 22.4 19.4293 20.9757 19.4293 18.9346L19.4293 13.065C19.4293 11.0239 17.9862 9.59961 15.9194 9.59961ZM23.9626 11.6841C23.605 11.4589 23.1655 11.439 22.7909 11.6296L21.5262 12.2681C21.0586 12.5037 20.7684 12.9802 20.7684 13.5104L20.7684 18.4885C20.7684 19.0178 21.0586 19.4943 21.5262 19.7317L22.79 20.3693C22.9616 20.4568 23.145 20.5001 23.3285 20.5001C23.5487 20.5001 23.7671 20.4378 23.9626 20.3156C24.3201 20.0912 24.5335 19.7022 24.5335 19.2751L24.5335 12.7246C24.5335 12.2984 24.3201 11.9085 23.9626 11.6841ZM15.6085 14.721Q15.6085 14.8724 15.1626 15.4193Q14.7167 15.9661 13.8249 16.9L15.6001 16.9C15.6618 16.9 15.7123 16.9842 15.7516 17.1524C15.7964 17.3151 15.8189 17.5478 15.8189 17.8507C15.8189 18.148 15.7824 18.4116 15.7095 18.6416Q15.6194 18.9495 15.4689 18.9826Q15.4508 18.9865 15.4319 18.9865L11.3345 18.9865Q11.3033 18.9865 11.2742 18.9785Q11.0765 18.924 10.9812 18.4986Q10.8802 18.0106 10.8802 17.4385Q10.8802 17.3123 11.3514 16.7486Q11.8225 16.1849 12.7732 15.1753L11.141 15.1753Q11.1211 15.1753 11.1029 15.1696Q10.9139 15.111 10.9139 14.4433Q10.9139 13.9301 11.0233 13.4758C11.0962 13.1673 11.1887 13.013 11.3009 13.013L15.1795 13.013Q15.2049 13.013 15.2289 13.0191Q15.6085 13.1144 15.6085 14.721Z" fill="rgb(255,255,255)" fill-rule="evenodd" />
</svg>
