<?xml version="1.0" encoding="UTF-8"?>
<svg width="36px" height="36px" viewBox="0 0 36 36" version="1.1" xmlns="http://www.w3.org/2000/svg" xmlns:xlink="http://www.w3.org/1999/xlink">
    <title>Iconly/Bold/Bookmark</title>
    <defs>
        <path d="M0,0 L36,0 L36,36 L0,36 L0,0 Z" id="path-1"></path>
    </defs>
    <g id="Iconly/Bold/Bookmark" stroke="none" fill="none" fill-rule="nonzero" xlink:href="#path-1" stroke-width="1">
        <g id="Group" fill-rule="evenodd" transform="translate(6, 3)" fill="#FFFFFF">
            <path d="M16.6049995,0 C20.6699996,0 23.955,1.6049998 24,5.68499958 L24,28.4549972 C24,28.7099971 23.9400002,28.9649968 23.8200002,29.1899968 C23.6250002,29.5499967 23.2950004,29.8199967 22.8900003,29.9399967 C22.5,30.0599967 22.0650004,30 21.7050004,29.789999 L11.9849997,24.9299997 L2.25,29.789999 C2.02649999,29.908499 1.76999999,29.9849978 1.51499999,29.9849978 C0.674999982,29.9849978 0,29.2949971 0,28.4549972 L0,5.68499958 C0,1.6049998 3.30000007,0 7.35000014,0 Z M17.6250005,9.05999947 L6.3299998,9.05999947 C5.68499979,9.05999947 5.15999985,9.58499967 5.15999985,10.2449999 C5.15999985,10.9035001 5.68499979,11.4300003 6.3299998,11.4300003 L17.6250005,11.4300003 C18.2700005,11.4300003 18.7950001,10.9035001 18.7950001,10.2449999 C18.7950001,9.58499967 18.2700005,9.05999947 17.6250005,9.05999947 Z" id="Exclude" fill-rule="nonzero"></path>
        </g>
    </g>
</svg>