<?xml version="1.0" encoding="UTF-8"?>
<svg width="36px" height="36px" viewBox="0 0 36 36" version="1.1" xmlns="http://www.w3.org/2000/svg" xmlns:xlink="http://www.w3.org/1999/xlink">
    <title>Iconly/Bold/Chat</title>
    <defs>
        <path d="M0,0 L36,0 L36,36 L0,36 L0,0 Z" id="path-1"></path>
    </defs>
    <g id="Iconly/Bold/Chat" stroke="none" fill="none" fill-rule="nonzero" xlink:href="#path-1" stroke-width="1">
        <g id="Group" fill-rule="evenodd" transform="translate(3, 3)" fill="#FFFFFF">
            <path d="M15.0300007,0 C23.5500004,0 30,6.98547864 30,14.9774666 C30,24.2463698 22.4400001,30 15,30 C12.54,30 9.80999994,29.3390094 7.61999989,28.0470715 C6.8549999,27.5813729 6.20999989,27.2358524 5.38499987,27.506258 L2.35500008,28.4076118 C1.59000009,28.6479724 0.899999991,28.047071 1.125,27.2358541 L2.12999994,23.8708062 C2.29499993,23.4051077 2.26500003,22.9093642 2.02500004,22.5187783 C0.735000014,20.1452179 0,17.546319 0,15.0225334 C0,7.12068057 6.31500077,0 15.0300007,0 Z M21.8850002,13.1146719 C20.8200002,13.1146719 19.9650002,13.9709562 19.9650002,15.0375559 C19.9650002,16.089133 20.8200002,16.9604399 21.8850002,16.9604399 C22.9500003,16.9604399 23.8050003,16.089133 23.8050003,15.0375559 C23.8050003,13.9709562 22.9500003,13.1146719 21.8850002,13.1146719 Z M14.9699993,13.1146706 C13.9199993,13.0996481 13.0499992,13.9709552 13.0499992,15.0225327 C13.0499992,16.0891327 13.9049993,16.9454173 14.9699993,16.9604399 C16.0349993,16.9604399 16.8899994,16.0891327 16.8899994,15.0375552 C16.8899994,13.9709552 16.0349993,13.1146706 14.9699993,13.1146706 Z M8.05500031,13.1146717 C6.99000027,13.1146717 6.13500023,13.970956 6.13500023,15.0375557 C6.13500023,16.0891329 7.00500026,16.9604397 8.05500031,16.9604397 C9.12000034,16.9454172 9.97500038,16.0891329 9.97500038,15.0375557 C9.97500038,13.970956 9.12000034,13.1146717 8.05500031,13.1146717 Z" id="Exclude" fill-rule="nonzero"></path>
        </g>
    </g>
</svg>