<?xml version="1.0" encoding="UTF-8"?>
<svg width="30px" height="30px" viewBox="0 0 30 30" version="1.1" xmlns="http://www.w3.org/2000/svg" xmlns:xlink="http://www.w3.org/1999/xlink">
    <title>Exclude</title>
    <defs>
        <linearGradient x1="100.000003%" y1="95.1248052%" x2="5.55111512e-15%" y2="4.8751975%" id="linearGradient-1">
            <stop stop-color="#FF4D67" offset="0%"></stop>
            <stop stop-color="#FF8395" offset="100%"></stop>
        </linearGradient>
    </defs>
    <g id="🔆-Light-Theme" stroke="none" stroke-width="1" fill="none" fill-rule="evenodd">
        <g id="25_Light_home" fill-rule="nonzero" transform="translate(-369, -519)" fill="url(#linearGradient-1)">
            <g id="Auto-Layout-Vertical" transform="translate(0, 44)" fill-rule="evenodd">
                <g id="Auto-Layout-Horizontal" transform="translate(24, 424)">
                    <g id="Auto-Layout-Vertical" transform="translate(340, 0)">
                        <g transform="translate(0, 48)" id="Iconly/Bold/Heart">
                            <g transform="translate(2, 0)">
                                <g id="Group" transform="translate(2.9997, 3.7508)">
                                    <path d="M9.4200243,-3.70121711e-11 C10.3650243,0.0287395053 11.280024,0.193739476 12.166524,0.495239463 L12.255024,0.495239463 C12.315024,0.52373946 12.3600242,0.555239483 12.3900242,0.58373948 C12.7215242,0.690239476 13.0350244,0.810239432 13.3350244,0.97523942 L13.9050245,1.23023943 C14.1300245,1.35023942 14.400025,1.57373935 14.550025,1.66523934 C14.700025,1.75373934 14.8650238,1.84523935 15.0000238,1.94873934 C16.6665237,0.675239458 18.6900243,-0.0147604905 20.7750242,-3.70121711e-11 C21.7215241,-3.70121711e-11 22.6665237,0.133739492 23.5650236,0.43523948 C29.1015234,2.23523943 31.096523,8.31023971 29.4300232,13.6202393 C28.4850232,16.3337391 26.9400249,18.8102376 24.916525,20.8337374 C22.0200251,23.6387372 18.8415246,26.1287372 15.4200248,28.273737 L15.0450248,28.5002384 L14.6550245,28.2587366 C11.2215246,26.1287368 8.02502442,23.6387383 5.10152452,20.8187385 C3.09152453,18.7952387 1.54502473,16.3337391 0.585024782,13.6202393 C-1.10997516,8.31023971 0.885025201,2.2352393 6.48152494,0.403739485 C6.91652492,0.253739493 7.36502481,0.148739499 7.81502481,0.090239502 L7.99502463,0.090239502 C8.4165246,0.0287395044 8.83502483,-3.70121711e-11 9.25502482,-3.70121711e-11 Z M22.7850242,4.74023878 C22.1700242,4.52873875 21.4950242,4.86023886 21.2700242,5.49023891 C21.0600241,6.12023896 21.3900241,6.81023904 22.0200242,7.03373907 C22.9815242,7.3937391 23.6250243,8.3402393 23.6250243,9.38873942 L23.6250243,9.43523927 C23.5965243,9.77873932 23.7000242,10.1102395 23.9100242,10.3652396 C24.1200243,10.6202396 24.4350243,10.7687396 24.7650244,10.8002396 C25.3800244,10.7837396 25.9050244,10.2902393 25.9500244,9.6587392 L25.9500244,9.48023924 C25.9950244,7.37873896 24.7215243,5.47523888 22.7850242,4.74023878 Z" id="Exclude" fill-rule="nonzero"></path>
                                </g>
                            </g>
                        </g>
                    </g>
                </g>
            </g>
        </g>
    </g>
</svg>