<?xml version="1.0" encoding="UTF-8"?>
<svg width="24px" height="24px" viewBox="0 0 24 24" version="1.1" xmlns="http://www.w3.org/2000/svg" xmlns:xlink="http://www.w3.org/1999/xlink">
    <title>Categories=Report Flag, Component=Additional Icons</title>
    <defs>
        <path d="M0,0 L24,0 L24,24 L0,24 L0,0 Z" id="path-1"></path>
    </defs>
    <g id="Categories=Report-Flag,-Component=Additional-Icons" stroke="none" fill="none" fill-rule="nonzero" xlink:href="#path-1">
        <path d="M13.6599998,4.30000019 C13.6138937,4.0741273 13.4911641,3.87112081 13.3125811,3.72533871 C13.133998,3.57955661 12.9105309,3.5 12.6800003,3.5 L5.5,3.5 C5.2347835,3.5 4.98042978,3.60535683 4.79289341,3.7928932 C4.60535704,3.98042957 4.5,4.2347835 4.5,4.5 L4.5,19.5 C4.5,19.7652165 4.60535704,20.0195712 4.79289341,20.2071075 C4.98042978,20.3946439 5.2347835,20.5 5.5,20.5 C5.7652165,20.5 6.01957022,20.3946439 6.20710659,20.2071075 C6.39464296,20.0195712 6.5,19.7652165 6.5,19.5 L6.5,13.5 L12.1000004,13.5 L12.3400002,14.6999998 C12.4300002,15.1679998 12.8429997,15.505 13.3199997,15.5 L18.5,15.5 C18.7652165,15.5 19.0195712,15.394643 19.2071075,15.2071066 C19.3946439,15.0195702 19.5,14.7652165 19.5,14.5 L19.5,6.5 C19.5,6.2347835 19.3946439,5.98042978 19.2071075,5.79289341 C19.0195712,5.60535704 18.7652165,5.5 18.5,5.5 L13.8999996,5.5 L13.6599998,4.30000019 Z" id="Vector" fill="#FFFFFF"></path>
    </g>
</svg>