<svg viewBox="0 0 24 24" xmlns="http://www.w3.org/2000/svg" xmlns:xlink="http://www.w3.org/1999/xlink" width="24.000000" height="24.000000" fill="none" customFrame="#000000">
	<rect id="Iconly/Bold/Lock" width="24.000000" height="24.000000" x="0.000000" y="0.000000" fill="rgb(255,255,255)" fill-opacity="0" />
	<g id="Group">
		<path id="Exclude" d="M17.5227 7.39601L17.5227 8.92935C19.2451 9.46696 20.5 11.0261 20.5 12.8884L20.5 17.8253C20.5 20.1308 18.5886 22 16.2322 22L7.7688 22C5.41136 22 3.5 20.1308 3.5 17.8253L3.5 12.8884C3.5 11.0261 4.75595 9.46696 6.47729 8.92935L6.47729 7.39601C6.48745 4.41479 8.95667 2 11.9848 2C15.0535 2 17.5227 4.41479 17.5227 7.39601ZM12.0051 3.73904C14.0678 3.73904 15.7445 5.37871 15.7445 7.39601L15.7445 8.7137L8.25553 8.7137L8.25553 7.37613C8.26569 5.36878 9.94232 3.73904 12.0051 3.73904ZM12.8891 16.4549C12.8891 16.9419 12.4928 17.3294 11.9949 17.3294C11.5072 17.3294 11.1109 16.9419 11.1109 16.4549L11.1109 14.2488C11.1109 13.7718 11.5072 13.3843 11.9949 13.3843C12.4928 13.3843 12.8891 13.7718 12.8891 14.2488L12.8891 16.4549Z" fill="rgb(158,158,158)" fill-rule="evenodd" />
	</g>
</svg>
