<svg viewBox="0 0 24 24" xmlns="http://www.w3.org/2000/svg" xmlns:xlink="http://www.w3.org/1999/xlink" width="24.000000" height="24.000000" fill="none" customFrame="#000000">
	<rect id="Iconly/Bold/Bookmark" width="24.000000" height="24.000000" x="0.000000" y="0.000000" fill="rgb(255,255,255)" fill-opacity="0" />
	<g id="Group">
		<path id="Exclude" d="M8.9 2L15.07 2C17.78 2 19.97 3.07 20 5.79L20 20.97C20 21.14 19.96 21.31 19.88 21.46C19.75 21.7 19.53 21.88 19.26 21.96C19 22.04 18.71 22 18.47 21.86L11.99 18.62L5.5 21.86C5.351 21.939 5.18 21.99 5.01 21.99C4.45 21.99 4 21.53 4 20.97L4 5.79C4 3.07 6.2 2 8.9 2ZM8.22 9.62L15.75 9.62C16.18 9.62 16.53 9.269 16.53 8.83C16.53 8.39 16.18 8.04 15.75 8.04L8.22 8.04C7.79 8.04 7.44 8.39 7.44 8.83C7.44 9.269 7.79 9.62 8.22 9.62Z" fill="rgb(158,158,158)" fill-rule="evenodd" />
	</g>
</svg>
