<svg viewBox="0 0 24 24" xmlns="http://www.w3.org/2000/svg" xmlns:xlink="http://www.w3.org/1999/xlink" width="24.000000" height="24.000000" fill="none" customFrame="#000000">
	<rect id="Iconly/Bold/Category" width="24.000000" height="24.000000" x="0.000000" y="0.000000" fill="rgb(255,255,255)" fill-opacity="0" />
	<g id="Group">
		<path id="Union" d="M4.54 2L7.92 2C9.33 2 10.46 3.15 10.46 4.561L10.46 7.97C10.46 9.39 9.33 10.53 7.92 10.53L4.54 10.53C3.14 10.53 2 9.39 2 7.97L2 4.561C2 3.15 3.14 2 4.54 2ZM4.54 13.4697L7.92 13.4697C9.33 13.4697 10.46 14.6107 10.46 16.0307L10.46 19.4397C10.46 20.8497 9.33 21.9997 7.92 21.9997L4.54 21.9997C3.14 21.9997 2 20.8497 2 19.4397L2 16.0307C2 14.6107 3.14 13.4697 4.54 13.4697ZM19.4601 2L16.0801 2C14.6701 2 13.5401 3.15 13.5401 4.561L13.5401 7.97C13.5401 9.39 14.6701 10.53 16.0801 10.53L19.4601 10.53C20.8601 10.53 22.0001 9.39 22.0001 7.97L22.0001 4.561C22.0001 3.15 20.8601 2 19.4601 2ZM16.0801 13.4697L19.4601 13.4697C20.8601 13.4697 22.0001 14.6107 22.0001 16.0307L22.0001 19.4397C22.0001 20.8497 20.8601 21.9997 19.4601 21.9997L16.0801 21.9997C14.6701 21.9997 13.5401 20.8497 13.5401 19.4397L13.5401 16.0307C13.5401 14.6107 14.6701 13.4697 16.0801 13.4697Z" fill="rgb(255,77,103)" fill-rule="evenodd" />
	</g>
</svg>
