<?xml version="1.0" encoding="UTF-8"?>
<svg width="16px" height="16px" viewBox="0 0 16 16" version="1.1" xmlns="http://www.w3.org/2000/svg" xmlns:xlink="http://www.w3.org/1999/xlink">
    <title>Categories=Music Song, Component=Additional Icons</title>
    <defs>
        <path d="M0,0 L16,0 L16,16 L0,16 L0,0 Z" id="path-1"></path>
    </defs>
    <g id="Categories=Music-Song,-Component=Additional-Icons" stroke="none" fill="none" fill-rule="nonzero" xlink:href="#path-1">
        <path d="M4.00000011,12.3819998 C5.47066687,12.3819998 6.66666684,11.1859999 6.66666684,9.71533314 L6.66666684,2.95199998 L12.666667,5.13333337 L12.666667,10.0866666 C12.2632453,9.846304 11.8029244,9.71810454 11.3333334,9.71533314 C9.86266686,9.71533314 8.66666689,10.9113331 8.66666689,12.3819998 C8.66666689,13.8526665 9.86266686,15.0486665 11.3333334,15.0486665 C12.8040004,15.0486665 14.0000004,13.8526665 14.0000004,12.3819998 L14.0000004,4.66666683 C14.0000004,4.52988589 13.9580333,4.39639907 13.8795386,4.28438298 C13.8010438,4.17236689 13.6899316,4.08726543 13.561333,4.04066674 L6.22800017,1.37400012 C6.12732896,1.33719811 6.01926223,1.32523802 5.91297992,1.33913586 C5.8066976,1.35303369 5.70533976,1.39237881 5.61751635,1.45382902 C5.52969293,1.51527923 5.45799863,1.59701889 5.4085237,1.6921047 C5.35904877,1.78719051 5.33325522,1.89281295 5.33333337,2.00000004 L5.33333337,7.41999992 C4.92991182,7.17963733 4.4695909,7.05143787 4.00000011,7.04866648 C2.52933334,7.04866648 1.33333337,8.24466642 1.33333337,9.71533314 C1.33333337,11.1859999 2.52933334,12.3819998 4.00000011,12.3819998 Z" id="Vector" fill="#FFFFFF"></path>
    </g>
</svg>