<?xml version="1.0" encoding="UTF-8"?>
<svg width="36px" height="36px" viewBox="0 0 36 36" version="1.1" xmlns="http://www.w3.org/2000/svg" xmlns:xlink="http://www.w3.org/1999/xlink">
    <title>Categories=Share forward, Component=Additional Icons</title>
    <defs>
        <path d="M0,0 L36,0 L36,36 L0,36 L0,0 Z" id="path-1"></path>
    </defs>
    <g id="Categories=Share-forward,-Component=Additional-Icons" stroke="none" fill="none" fill-rule="nonzero" xlink:href="#path-1">
        <path d="M19.4999995,22.2000003 C19.4999995,21.5372586 18.96274,21 18.2999983,21 L16.4999995,21 C14.0393976,20.9990606 11.6253452,21.6707152 9.51881102,22.9423556 C7.76033201,24.0038874 6.27199051,25.4498059 5.16188006,27.1654544 C4.97017658,27.4617274 4.49999952,27.3528851 4.49999952,27 C4.49999952,19.1193717 10.5766946,12.658493 18.3001671,12.0472834 C18.9608432,11.9949997 19.4999995,11.4627418 19.4999995,10.8000001 L19.4999995,6.99674946 C19.4999995,5.99054199 20.6639165,5.43113447 21.4496325,6.05970725 L33.3286948,15.562957 C33.9291828,16.0433474 33.9291828,16.9566526 33.3286948,17.437043 L21.4496339,26.9402919 C20.6639179,27.5688647 19.4999995,27.0094571 19.4999995,26.0032496 L19.4999995,22.2000003 Z" id="Vector" fill="#FFFFFF"></path>
    </g>
</svg>